<?xml version="1.0" standalone="no"?>
<!DOCTYPE svg PUBLIC "-//W3C//DTD SVG 20010904//EN"
 "http://www.w3.org/TR/2001/REC-SVG-20010904/DTD/svg10.dtd">
<svg version="1.0" xmlns="http://www.w3.org/2000/svg"
 width="403.000000pt" height="403.000000pt" viewBox="0 0 403.000000 403.000000"
 preserveAspectRatio="xMidYMid meet">
<metadata>
Created by potrace 1.14, written by Peter Selinger 2001-2017
</metadata>
<g transform="translate(0.000000,403.000000) scale(0.100000,-0.100000)"
fill="#000000" stroke="none">
<path d="M140 3380 c-4 -3 -6 -32 -4 -65 4 -90 14 -218 19 -235 2 -8 6 -37 10
-64 22 -177 92 -406 181 -591 46 -97 154 -281 172 -295 4 -3 20 -23 37 -45 16
-22 52 -64 79 -93 l50 -53 -42 -82 c-23 -45 -62 -120 -87 -167 -46 -85 -105
-195 -205 -385 -29 -55 -67 -127 -85 -160 -18 -33 -58 -109 -90 -170 -32 -60
-82 -155 -112 -209 -29 -54 -53 -102 -53 -105 0 -5 418 -7 455 -2 6 1 15 11
20 24 12 25 179 347 260 502 92 175 182 348 213 410 49 96 55 102 83 83 54
-35 257 -106 354 -124 23 -4 157 -24 166 -24 3 0 5 -190 4 -423 0 -232 2 -429
6 -437 6 -13 35 -15 186 -14 98 1 181 2 186 3 4 0 7 614 7 1364 l0 1362 -167
-2 c-93 -1 -179 -2 -193 -2 l-25 -1 0 -735 1 -735 -31 5 c-16 2 -48 7 -70 10
-42 6 -136 30 -170 44 -91 38 -139 63 -202 106 -329 226 -526 648 -559 1195
-3 58 -8 107 -10 109 -6 7 -374 7 -384 1z"/>
<path d="M2084 3378 c-4 -6 -7 -2029 -4 -2643 l0 -80 190 0 c162 0 190 2 191
15 0 8 1 205 1 438 1 232 4 422 7 423 3 1 17 2 31 4 162 16 329 64 459 130 29
14 57 23 61 18 4 -4 31 -53 60 -108 29 -55 76 -145 105 -200 29 -55 89 -170
133 -255 44 -85 116 -225 160 -310 l81 -155 230 0 c127 0 231 2 231 4 0 4
-110 214 -155 296 -12 22 -66 123 -120 225 -53 102 -114 217 -135 255 -56 105
-116 217 -183 345 -33 63 -64 119 -68 125 -17 17 -9 41 22 71 132 125 304 413
383 643 34 97 73 234 82 291 3 14 9 48 14 75 5 28 12 77 16 110 3 33 8 67 9
76 3 16 8 172 6 199 -1 13 -30 15 -196 15 -188 0 -195 -1 -196 -20 -4 -108 -8
-169 -14 -215 -4 -30 -9 -71 -11 -90 -2 -19 -6 -46 -9 -60 -3 -14 -7 -34 -9
-45 -21 -101 -71 -281 -85 -300 -4 -5 -16 -32 -25 -58 -49 -132 -169 -309
-282 -418 -161 -155 -390 -258 -584 -264 -13 0 -15 88 -15 733 0 644 -2 732
-15 733 -76 5 -363 2 -366 -3z"/>
</g>
</svg>
